# xmcd
#
# Track frame offsets: 
#        150
#        674
#        18428
#        33289
#        51176
#        65559
#        81517
#        98105
#        115277
#        132811
#        150431
#        169213
#        187042
#        206952
#        222233
#        236348
#        257878
#        271873
#        287178
#        303592
#        321327
#        323265
#        326109
#
# Disc length: 4411 seconds
#
# Revision: 0
# Processed by: cddbd v1.5.2PL0 Copyright (c) Steve Scherf et al.
# Submitted via: ExactAudioCopy v0.99pb4
#
DISCID=4e113917
DTITLE=Various Artist - prevue promo 1061A-3
DYEAR=2001
DGENRE=pop
TTITLE0=blank - data
TTITLE1=Doobie Brothers, The - Ordinary Man
TTITLE2=Dante Thomas - Miss California
TTITLE3=Bee Gees - This Is Where I Came In
TTITLE4=Minibar - Holiday From Myself
TTITLE5=Brooke Allison - Kiss-Off, The (Goodbye)
TTITLE6=Wild Orchid - Stuttering (Don't Say)
TTITLE7=Fredo Starr and Jill Scott - Shining Through(Movie "Save The Las
TTITLE7=t Dance")
TTITLE8=Black Eyed Peas feat Macy Gray - Request Line
TTITLE9=Paul Oakenfold - Babe I'm Gonna Leave You
TTITLE10=Shemekia Copeland - Love Scene
TTITLE11=Shawn Mullins - Up All Night
TTITLE12=Eric Clapton - Superman Inside
TTITLE13=Guano Apes - Doedel Up
TTITLE14=Idlewild - Little Discourage
TTITLE15=Doves - Catch The Sun
TTITLE16=Doyle Bramhall II and Smokestack - Green Light Girl
TTITLE17=Everclear - Out Of My Depth
TTITLE18=Toadies - Push The Hand
TTITLE19=A - Old Folks
TTITLE20=Black Eyed Peas -  Request Line Countdown Intros( For DJ Use-
TTITLE20=Peas Only Intro - No Macy)
TTITLE21=Black Eyed Peas (Request Line Countdown Intros For DJ Use)
TTITLE22=Black Eyed Peas (Peas and Macy Double Request Line Countdown In
TTITLE22=tros For DJ Use)
EXTD=
EXTT0=
EXTT1=
EXTT2=
EXTT3=
EXTT4=
EXTT5=
EXTT6=
EXTT7=
EXTT8=
EXTT9=
EXTT10=
EXTT11=
EXTT12=
EXTT13=
EXTT14=
EXTT15=
EXTT16=
EXTT17=
EXTT18=
EXTT19=
EXTT20=
EXTT21=
EXTT22=
PLAYORDER=
